<svg width="300" height="300" viewBox="0 0 300 300" fill="none" xmlns="http://www.w3.org/2000/svg">
<rect width="300" height="300" fill="#03050A"/>
<path d="M58.3333 168.333H241.667M95 168.333V205M131.667 168.333V205M168.333 168.333V205M205 168.333V205M209.583 113.333C196.75 113.333 185.75 106 180.25 95C175.043 80.5592 164.741 68.5176 151.28 61.1386C137.819 53.7596 122.126 51.5514 107.152 54.9291C92.177 58.3068 78.9518 67.0379 69.9619 79.481C60.9721 91.9241 56.8368 107.222 58.3333 122.5V223.333C58.3333 228.196 60.2648 232.859 63.703 236.297C67.1412 239.735 71.8043 241.667 76.6666 241.667H223.333C228.196 241.667 232.859 239.735 236.297 236.297C239.735 232.859 241.667 228.196 241.667 223.333V145.417C241.667 128 227 113.333 209.583 113.333Z" stroke="#27AE60" stroke-width="16" stroke-linecap="round" stroke-linejoin="round"/>
</svg>
