<svg width="20" height="18" viewBox="0 0 20 18" fill="none" xmlns="http://www.w3.org/2000/svg">
<path d="M17.0712 10.142L11.4142 15.8C11.0391 16.175 10.5305 16.3856 10.0002 16.3856C9.46987 16.3856 8.96126 16.175 8.5862 15.8L2.9292 10.143C2.46157 9.67947 2.09011 9.12812 1.83613 8.52062C1.58216 7.91312 1.45067 7.26144 1.44923 6.60299C1.44779 5.94454 1.57642 5.29229 1.82773 4.68368C2.07904 4.07508 2.44809 3.5221 2.91368 3.05651C3.37928 2.59091 3.93225 2.22186 4.54086 1.97055C5.14947 1.71924 5.80172 1.59061 6.46017 1.59205C7.11862 1.59349 7.7703 1.72498 8.3778 1.97895C8.9853 2.23293 9.53665 2.60439 10.0002 3.07202C10.9418 2.1539 12.2071 1.64369 13.5222 1.65193C14.8373 1.66017 16.0962 2.18619 17.0262 3.11605C17.9562 4.0459 18.4824 5.30472 18.4908 6.6198C18.4992 7.93488 17.9892 9.20033 17.0712 10.142Z" stroke="white" stroke-opacity="0.6" stroke-width="1.5" stroke-linecap="round" stroke-linejoin="round"/>
</svg>
