<svg width="54" height="54" viewBox="0 0 54 54" fill="none" xmlns="http://www.w3.org/2000/svg">
<path fill-rule="evenodd" clip-rule="evenodd" d="M9.49964 12.069C11.7757 9.79369 14.7896 8.40604 17.9981 8.15606C21.2067 7.90607 24.3991 8.81018 27.0001 10.7055C29.7479 8.71745 33.1432 7.8361 36.511 8.23664C39.8788 8.63717 42.9726 10.2903 45.1775 12.8673C47.3823 15.4444 48.5368 18.7567 48.4114 22.146C48.286 25.5352 46.8899 28.7532 44.5006 31.1602L31.7724 43.8885C30.5066 45.1539 28.79 45.8648 27.0001 45.8648C25.2103 45.8648 23.4937 45.1539 22.2279 43.8885L9.49964 31.1625C6.96809 28.6308 5.5459 25.1971 5.5459 21.6169C5.5459 18.0366 6.96809 14.6007 9.49964 12.069Z" fill="#F83D3D"/>
</svg>
