<svg width="44" height="38" viewBox="0 0 44 38" fill="none" xmlns="http://www.w3.org/2000/svg">
<path fill-rule="evenodd" clip-rule="evenodd" d="M4.49964 4.06899C6.77572 1.79369 9.78955 0.406044 12.9981 0.156056C16.2067 -0.0939319 19.3991 0.810177 22.0001 2.70549C24.7479 0.717449 28.1432 -0.163896 31.511 0.236638C34.8788 0.637173 37.9726 2.29026 40.1775 4.86732C42.3823 7.44438 43.5368 10.7567 43.4114 14.146C43.286 17.5352 41.8899 20.7532 39.5006 23.1602L26.7724 35.8885C25.5066 37.1539 23.79 37.8648 22.0001 37.8648C20.2103 37.8648 18.4937 37.1539 17.2279 35.8885L4.49964 23.1625C1.96809 20.6308 0.545898 17.1971 0.545898 13.6169C0.545898 10.0366 1.96809 6.60071 4.49964 4.06899Z" fill="#F83D3D"/>
</svg>
