<svg width="52" height="52" viewBox="0 0 52 52" fill="none" xmlns="http://www.w3.org/2000/svg">
<g clip-path="url(#clip0_41_107)">
<path fill-rule="evenodd" clip-rule="evenodd" d="M40.4537 6.95063C41.0743 6.84712 41.7101 6.88003 42.3168 7.04706C42.9234 7.21409 43.4864 7.51123 43.9667 7.91784C44.4469 8.32445 44.8328 8.83077 45.0976 9.4016C45.3623 9.97242 45.4996 10.5941 45.4998 11.2233V36.8333C45.4994 38.741 44.8695 40.5954 43.7079 42.1086C42.5462 43.6219 40.9177 44.7096 39.0749 45.2031C37.232 45.6965 35.2779 45.5682 33.5155 44.8378C31.753 44.1075 30.2808 42.8161 29.3271 41.1638C28.3734 39.5116 27.9916 37.5908 28.2407 35.6994C28.4899 33.808 29.3562 32.0517 30.7053 30.7028C32.0543 29.3538 33.8107 28.4878 35.7022 28.2388C37.5936 27.9898 39.5143 28.3719 41.1665 29.3258V19.89L19.4998 23.5018V39C19.4998 39.13 19.489 39.2535 19.4673 39.377C19.6229 41.0431 19.223 42.7139 18.3299 44.129C17.4369 45.5441 16.1009 46.6241 14.53 47.2008C12.9591 47.7774 11.2416 47.8183 9.6451 47.317C8.04859 46.8157 6.66272 45.8004 5.7034 44.4293C4.74408 43.0583 4.2652 41.4084 4.34136 39.7367C4.41752 38.0651 5.04445 36.4656 6.12447 35.1875C7.20449 33.9093 8.67695 33.0243 10.3124 32.6702C11.9479 32.3162 13.6546 32.5131 15.1665 33.2301V14.8351C15.1664 13.8094 15.5301 12.8168 16.1931 12.034C16.856 11.2512 17.7752 10.729 18.787 10.5603L40.4537 6.95063ZM19.4998 19.11L41.1665 15.4981V11.2233L19.4998 14.8351V19.11Z" fill="#2D9CDB"/>
</g>
<defs>
<clipPath id="clip0_41_107">
<rect width="52" height="52" fill="white"/>
</clipPath>
</defs>
</svg>
