<svg width="42" height="42" viewBox="0 0 42 42" fill="none" xmlns="http://www.w3.org/2000/svg">
<path fill-rule="evenodd" clip-rule="evenodd" d="M36.4537 0.950634C37.0743 0.847124 37.7101 0.880028 38.3168 1.04706C38.9234 1.21409 39.4864 1.51123 39.9667 1.91784C40.4469 2.32445 40.8328 2.83077 41.0976 3.4016C41.3623 3.97242 41.4996 4.59406 41.4998 5.2233V30.8333C41.4994 32.741 40.8695 34.5954 39.7079 36.1086C38.5462 37.6219 36.9177 38.7096 35.0749 39.2031C33.232 39.6965 31.2779 39.5682 29.5155 38.8378C27.753 38.1075 26.2808 36.8161 25.3271 35.1638C24.3734 33.5116 23.9916 31.5908 24.2407 29.6994C24.4899 27.808 25.3562 26.0517 26.7053 24.7028C28.0543 23.3538 29.8107 22.4878 31.7022 22.2388C33.5936 21.9898 35.5143 22.3719 37.1665 23.3258V13.89L15.4998 17.5018V33C15.4998 33.13 15.489 33.2535 15.4673 33.377C15.6229 35.0431 15.223 36.7139 14.3299 38.129C13.4369 39.5441 12.1009 40.6241 10.53 41.2008C8.9591 41.7774 7.24162 41.8183 5.6451 41.317C4.04859 40.8157 2.66272 39.8004 1.7034 38.4293C0.744081 37.0583 0.265197 35.4084 0.341358 33.7367C0.41752 32.0651 1.04445 30.4656 2.12447 29.1875C3.20449 27.9093 4.67695 27.0243 6.31243 26.6702C7.94791 26.3162 9.65457 26.5131 11.1665 27.2301V8.83514C11.1664 7.80935 11.5301 6.81678 12.1931 6.03402C12.856 5.25125 13.7752 4.72904 14.787 4.5603L36.4537 0.950634ZM15.4998 13.11L37.1665 9.49813V5.2233L15.4998 8.83514V13.11Z" fill="#2D9CDB"/>
</svg>
