<svg width="46" height="47" viewBox="0 0 46 47" fill="none" xmlns="http://www.w3.org/2000/svg">
<path d="M3.00005 28H43M11 28V36M19 28V36M27 28V36M35 28V36M36 16C33.2 16 30.8 14.4 29.6 12C28.464 8.84933 26.2162 6.22206 23.2793 4.61209C20.3424 3.00213 16.9185 2.52034 13.6513 3.2573C10.3841 3.99426 7.49862 5.89921 5.5372 8.61407C3.57578 11.3289 2.67353 14.6667 3.00005 18V40C3.00005 41.0609 3.42147 42.0783 4.17162 42.8285C4.92176 43.5786 5.93918 44 7.00005 44H39C40.0609 44 41.0783 43.5786 41.8285 42.8285C42.5786 42.0783 43 41.0609 43 40V23C43 19.2 39.8 16 36 16Z" stroke="#2D9CDB" stroke-width="4.16667" stroke-linecap="round" stroke-linejoin="round"/>
</svg>
