<svg width="48" height="48" viewBox="0 0 48 48" fill="none" xmlns="http://www.w3.org/2000/svg">
<path d="M4.00005 28H44M12 28V36M20 28V36M28 28V36M36 28V36M37 16C34.2 16 31.8 14.4 30.6 12C29.464 8.84933 27.2162 6.22206 24.2793 4.61209C21.3424 3.00213 17.9185 2.52034 14.6513 3.2573C11.3841 3.99426 8.49862 5.89921 6.5372 8.61407C4.57578 11.3289 3.67353 14.6667 4.00005 18V40C4.00005 41.0609 4.42147 42.0783 5.17162 42.8285C5.92176 43.5786 6.93918 44 8.00005 44H40C41.0609 44 42.0783 43.5786 42.8285 42.8285C43.5786 42.0783 44 41.0609 44 40V23C44 19.2 40.8 16 37 16Z" stroke="#2D9CDB" stroke-width="4.16667" stroke-linecap="round" stroke-linejoin="round"/>
</svg>
