<svg width="16" height="18" viewBox="0 0 16 18" fill="none" xmlns="http://www.w3.org/2000/svg">
<path d="M14.6667 3.99996H11.3333V3.16663C11.3333 2.50358 11.0699 1.8677 10.6011 1.39886C10.1323 0.930018 9.49637 0.666626 8.83333 0.666626H7.16667C6.50363 0.666626 5.86774 0.930018 5.3989 1.39886C4.93006 1.8677 4.66667 2.50358 4.66667 3.16663V3.99996H1.33333C1.11232 3.99996 0.900358 4.08776 0.744078 4.24404C0.587797 4.40032 0.5 4.61228 0.5 4.83329C0.5 5.05431 0.587797 5.26627 0.744078 5.42255C0.900358 5.57883 1.11232 5.66663 1.33333 5.66663H2.16667V14.8333C2.16667 15.4963 2.43006 16.1322 2.8989 16.6011C3.36774 17.0699 4.00363 17.3333 4.66667 17.3333H11.3333C11.9964 17.3333 12.6323 17.0699 13.1011 16.6011C13.5699 16.1322 13.8333 15.4963 13.8333 14.8333V5.66663H14.6667C14.8877 5.66663 15.0996 5.57883 15.2559 5.42255C15.4122 5.26627 15.5 5.05431 15.5 4.83329C15.5 4.61228 15.4122 4.40032 15.2559 4.24404C15.0996 4.08776 14.8877 3.99996 14.6667 3.99996ZM6.33333 3.16663C6.33333 2.94561 6.42113 2.73365 6.57741 2.57737C6.73369 2.42109 6.94565 2.33329 7.16667 2.33329H8.83333C9.05435 2.33329 9.26631 2.42109 9.42259 2.57737C9.57887 2.73365 9.66667 2.94561 9.66667 3.16663V3.99996H6.33333V3.16663ZM12.1667 14.8333C12.1667 15.0543 12.0789 15.2663 11.9226 15.4225C11.7663 15.5788 11.5543 15.6666 11.3333 15.6666H4.66667C4.44565 15.6666 4.23369 15.5788 4.07741 15.4225C3.92113 15.2663 3.83333 15.0543 3.83333 14.8333V5.66663H12.1667V14.8333Z" fill="white"/>
</svg>
